<svg width="177" height="38" viewBox="0 0 177 38" fill="none" xmlns="http://www.w3.org/2000/svg">
<rect x="1.5" y="1.5" width="174" height="35" fill="#F6FAFB" stroke="#D49C6B" stroke-width="3"/>
<path d="M11.116 25V12.4H17.182C18.358 12.4 19.372 12.592 20.224 12.976C21.088 13.36 21.754 13.912 22.222 14.632C22.69 15.34 22.924 16.18 22.924 17.152C22.924 18.124 22.69 18.964 22.222 19.672C21.754 20.38 21.088 20.932 20.224 21.328C19.372 21.712 18.358 21.904 17.182 21.904H13.474L15.364 20.086V25H11.116ZM15.364 20.554L13.474 18.628H16.912C17.5 18.628 17.932 18.496 18.208 18.232C18.496 17.968 18.64 17.608 18.64 17.152C18.64 16.696 18.496 16.336 18.208 16.072C17.932 15.808 17.5 15.676 16.912 15.676H13.474L15.364 13.75V20.554ZM30.2597 25.18C29.0597 25.18 28.0097 24.958 27.1097 24.514C26.2217 24.07 25.5317 23.464 25.0397 22.696C24.5477 21.916 24.3017 21.04 24.3017 20.068C24.3017 19.072 24.5417 18.19 25.0217 17.422C25.5137 16.654 26.1797 16.054 27.0197 15.622C27.8717 15.19 28.8257 14.974 29.8817 14.974C30.8537 14.974 31.7477 15.166 32.5637 15.55C33.3917 15.934 34.0517 16.504 34.5437 17.26C35.0477 18.016 35.2997 18.952 35.2997 20.068C35.2997 20.212 35.2937 20.374 35.2817 20.554C35.2697 20.722 35.2577 20.878 35.2457 21.022H27.6677V19.06H33.0857L31.5557 19.582C31.5557 19.198 31.4837 18.874 31.3397 18.61C31.2077 18.334 31.0217 18.124 30.7817 17.98C30.5417 17.824 30.2537 17.746 29.9177 17.746C29.5817 17.746 29.2877 17.824 29.0357 17.98C28.7957 18.124 28.6097 18.334 28.4777 18.61C28.3457 18.874 28.2797 19.198 28.2797 19.582V20.194C28.2797 20.614 28.3637 20.974 28.5317 21.274C28.6997 21.574 28.9397 21.802 29.2517 21.958C29.5637 22.102 29.9417 22.174 30.3857 22.174C30.8417 22.174 31.2137 22.114 31.5017 21.994C31.8017 21.874 32.1137 21.694 32.4377 21.454L34.5617 23.596C34.0817 24.112 33.4877 24.508 32.7797 24.784C32.0837 25.048 31.2437 25.18 30.2597 25.18ZM37.6622 25V15.154H41.9642L45.0962 21.292H43.4042L46.9502 15.154H50.7662L50.8022 25H47.1482L47.1302 19.078L47.7602 19.51L45.0422 24.226H43.3322L40.6142 19.204L41.3162 19.024V25H37.6622ZM58.6675 25.18C57.5515 25.18 56.5615 24.964 55.6975 24.532C54.8455 24.088 54.1735 23.482 53.6815 22.714C53.1895 21.946 52.9435 21.064 52.9435 20.068C52.9435 19.072 53.1895 18.19 53.6815 17.422C54.1735 16.654 54.8455 16.054 55.6975 15.622C56.5615 15.19 57.5515 14.974 58.6675 14.974C59.7835 14.974 60.7735 15.19 61.6375 15.622C62.5015 16.054 63.1735 16.654 63.6535 17.422C64.1455 18.19 64.3915 19.072 64.3915 20.068C64.3915 21.064 64.1455 21.946 63.6535 22.714C63.1735 23.482 62.5015 24.088 61.6375 24.532C60.7735 24.964 59.7835 25.18 58.6675 25.18ZM58.6675 22.012C58.9675 22.012 59.2375 21.94 59.4775 21.796C59.7175 21.652 59.9095 21.436 60.0535 21.148C60.1975 20.848 60.2695 20.488 60.2695 20.068C60.2695 19.636 60.1975 19.282 60.0535 19.006C59.9095 18.718 59.7175 18.502 59.4775 18.358C59.2375 18.214 58.9675 18.142 58.6675 18.142C58.3675 18.142 58.0975 18.214 57.8575 18.358C57.6175 18.502 57.4255 18.718 57.2815 19.006C57.1375 19.282 57.0655 19.636 57.0655 20.068C57.0655 20.488 57.1375 20.848 57.2815 21.148C57.4255 21.436 57.6175 21.652 57.8575 21.796C58.0975 21.94 58.3675 22.012 58.6675 22.012ZM66.5501 25V15.154H70.6001V18.61H73.3721V15.154H77.4221V25H73.3721V21.796H70.6001V25H66.5501ZM82.4974 25V17.458L83.3794 18.322H79.4914V15.154H89.5534V18.322H85.6654L86.5474 17.458V25H82.4974ZM91.7855 25V12.4H103.972V25H99.7955V14.794L100.714 15.694H95.0435L95.9615 14.794V25H91.7855ZM113.508 25.18C112.656 25.18 111.948 25 111.384 24.64C110.832 24.268 110.424 23.71 110.16 22.966C109.896 22.21 109.764 21.25 109.764 20.086C109.764 18.898 109.884 17.932 110.124 17.188C110.376 16.432 110.778 15.874 111.33 15.514C111.882 15.154 112.608 14.974 113.508 14.974C114.372 14.974 115.164 15.184 115.884 15.604C116.604 16.012 117.18 16.6 117.612 17.368C118.044 18.124 118.26 19.03 118.26 20.086C118.26 21.142 118.044 22.054 117.612 22.822C117.18 23.578 116.604 24.16 115.884 24.568C115.164 24.976 114.372 25.18 113.508 25.18ZM106.938 28.492V15.154H110.808V16.486L110.826 20.086L111.006 23.686V28.492H106.938ZM112.536 22.012C112.836 22.012 113.106 21.94 113.346 21.796C113.586 21.652 113.778 21.436 113.922 21.148C114.066 20.86 114.138 20.506 114.138 20.086C114.138 19.654 114.066 19.294 113.922 19.006C113.778 18.718 113.586 18.502 113.346 18.358C113.106 18.214 112.836 18.142 112.536 18.142C112.236 18.142 111.966 18.214 111.726 18.358C111.486 18.502 111.294 18.718 111.15 19.006C111.006 19.294 110.934 19.654 110.934 20.086C110.934 20.506 111.006 20.86 111.15 21.148C111.294 21.436 111.486 21.652 111.726 21.796C111.966 21.94 112.236 22.012 112.536 22.012ZM125.552 25.18C124.436 25.18 123.446 24.964 122.582 24.532C121.73 24.088 121.058 23.482 120.566 22.714C120.074 21.946 119.828 21.064 119.828 20.068C119.828 19.072 120.074 18.19 120.566 17.422C121.058 16.654 121.73 16.054 122.582 15.622C123.446 15.19 124.436 14.974 125.552 14.974C126.668 14.974 127.658 15.19 128.522 15.622C129.386 16.054 130.058 16.654 130.538 17.422C131.03 18.19 131.276 19.072 131.276 20.068C131.276 21.064 131.03 21.946 130.538 22.714C130.058 23.482 129.386 24.088 128.522 24.532C127.658 24.964 126.668 25.18 125.552 25.18ZM125.552 22.012C125.852 22.012 126.122 21.94 126.362 21.796C126.602 21.652 126.794 21.436 126.938 21.148C127.082 20.848 127.154 20.488 127.154 20.068C127.154 19.636 127.082 19.282 126.938 19.006C126.794 18.718 126.602 18.502 126.362 18.358C126.122 18.214 125.852 18.142 125.552 18.142C125.252 18.142 124.982 18.214 124.742 18.358C124.502 18.502 124.31 18.718 124.166 19.006C124.022 19.282 123.95 19.636 123.95 20.068C123.95 20.488 124.022 20.848 124.166 21.148C124.31 21.436 124.502 21.652 124.742 21.796C124.982 21.94 125.252 22.012 125.552 22.012ZM138.601 25.18C137.473 25.18 136.471 24.964 135.595 24.532C134.719 24.1 134.029 23.5 133.525 22.732C133.033 21.952 132.787 21.064 132.787 20.068C132.787 19.072 133.033 18.19 133.525 17.422C134.029 16.654 134.719 16.054 135.595 15.622C136.471 15.19 137.473 14.974 138.601 14.974C139.801 14.974 140.827 15.232 141.679 15.748C142.531 16.264 143.119 16.978 143.443 17.89L140.293 19.438C140.089 18.982 139.837 18.652 139.537 18.448C139.249 18.244 138.931 18.142 138.583 18.142C138.283 18.142 138.001 18.214 137.737 18.358C137.485 18.502 137.281 18.718 137.125 19.006C136.981 19.282 136.909 19.636 136.909 20.068C136.909 20.5 136.981 20.86 137.125 21.148C137.281 21.436 137.485 21.652 137.737 21.796C138.001 21.94 138.283 22.012 138.583 22.012C138.931 22.012 139.249 21.91 139.537 21.706C139.837 21.502 140.089 21.172 140.293 20.716L143.443 22.264C143.119 23.176 142.531 23.89 141.679 24.406C140.827 24.922 139.801 25.18 138.601 25.18ZM147.818 25V17.458L148.7 18.322H144.812V15.154H154.874V18.322H150.986L151.868 17.458V25H147.818ZM161.651 25.18C160.535 25.18 159.545 24.964 158.681 24.532C157.829 24.088 157.157 23.482 156.665 22.714C156.173 21.946 155.927 21.064 155.927 20.068C155.927 19.072 156.173 18.19 156.665 17.422C157.157 16.654 157.829 16.054 158.681 15.622C159.545 15.19 160.535 14.974 161.651 14.974C162.767 14.974 163.757 15.19 164.621 15.622C165.485 16.054 166.157 16.654 166.637 17.422C167.129 18.19 167.375 19.072 167.375 20.068C167.375 21.064 167.129 21.946 166.637 22.714C166.157 23.482 165.485 24.088 164.621 24.532C163.757 24.964 162.767 25.18 161.651 25.18ZM161.651 22.012C161.951 22.012 162.221 21.94 162.461 21.796C162.701 21.652 162.893 21.436 163.037 21.148C163.181 20.848 163.253 20.488 163.253 20.068C163.253 19.636 163.181 19.282 163.037 19.006C162.893 18.718 162.701 18.502 162.461 18.358C162.221 18.214 161.951 18.142 161.651 18.142C161.351 18.142 161.081 18.214 160.841 18.358C160.601 18.502 160.409 18.718 160.265 19.006C160.121 19.282 160.049 19.636 160.049 20.068C160.049 20.488 160.121 20.848 160.265 21.148C160.409 21.436 160.601 21.652 160.841 21.796C161.081 21.94 161.351 22.012 161.651 22.012Z" fill="black"/>
</svg>
