<svg width="57" height="45" viewBox="0 0 57 45" fill="none" xmlns="http://www.w3.org/2000/svg">
<path d="M38.7084 36.864C39.332 34.2567 40.9547 26.7529 41.4117 24.7115L49.6586 24.8119C53.4839 24.8586 56.6337 21.9342 56.678 18.294C56.7224 14.6539 53.6448 11.6536 49.8195 11.607L32.3089 11.3937C33.1128 10.184 33.799 8.79686 34.0372 7.36902C34.7013 3.36662 31.9146 0.383132 28.2561 0.338551C26.3658 0.315517 24.4587 1.09129 22.8959 2.5228C13.4623 11.1508 10.7088 14.8944 0.345591 15.5848L0.0795832 37.4147L4.18426 37.4647C16.2869 37.6122 18.2659 44.2397 27.654 44.3541C33.4024 44.4242 37.444 42.138 38.7084 36.864ZM19.8614 37.4202C16.4011 35.5709 12.117 33.2801 4.82959 33.0747L4.99399 19.5836C13.9836 18.0952 19.9322 11.3793 26.1807 5.67525C27.8101 4.18072 29.4083 4.84953 29.393 6.6873C29.3732 9.4671 24.8869 13.3679 21.7564 15.6674L49.7659 16.0087C50.9799 16.0235 51.9961 17.044 51.9816 18.2368C51.9671 19.4297 50.9263 20.4251 49.7122 20.4103L33.3969 20.2115C32.6572 20.2025 32.0492 20.7586 32.0407 21.454C32.0323 22.1451 32.6266 22.7158 33.3662 22.7248L34.7165 22.7413C35.9704 22.7566 36.906 23.8465 36.6453 24.9967C36.4492 25.8704 35.6219 26.4943 34.6709 26.4827L31.6816 26.4462C30.9419 26.4372 30.3339 26.9933 30.3255 27.6866C30.317 28.3798 30.9113 28.9506 31.651 28.9596L33.6 28.9833C34.8469 28.9985 35.7755 30.0818 35.5173 31.2254C35.3235 32.0947 34.5033 32.7143 33.5547 32.7027L29.9549 32.6588C29.2152 32.6498 28.6072 33.2059 28.5987 33.8992C28.5903 34.5924 29.1845 35.1632 29.9242 35.1722L32.0658 35.1983C33.2939 35.2132 34.0871 36.4225 33.5554 37.4572C32.8219 38.868 31.3356 39.9967 27.7077 39.9525C24.5258 39.9137 22.5705 38.8663 19.8614 37.4202Z" fill="#F6FAFB"/>
</svg>
