<svg width="65" height="83" viewBox="0 0 65 83" fill="none" xmlns="http://www.w3.org/2000/svg">
<path d="M18.3379 45.9342H3.4375C1.54917 45.9342 0 47.4696 0 49.3808C0 50.2425 0.325416 51.0996 0.944166 51.755C8.66708 59.8904 22.4492 74.4196 28.7604 81.07C29.6267 81.9867 30.8321 82.5 32.0833 82.5C33.3392 82.5 34.54 81.9867 35.4062 81.07C41.7175 74.4196 55.5042 59.8904 63.2179 51.755C63.8412 51.0996 64.1667 50.2425 64.1667 49.3808C64.1667 47.4696 62.6221 45.9342 60.7292 45.9342H45.8287V4.5925C45.8287 2.15875 43.6746 0 41.2454 0H22.9213C20.4921 0 18.3379 2.15875 18.3379 4.5925V45.9342ZM38.9537 6.875V52.8092H52.7404L32.0833 74.5846L11.4262 52.8092H25.2129V6.875H38.9537Z" fill="url(#paint0_linear_6859_101)"/>
<defs>
<linearGradient id="paint0_linear_6859_101" x1="32.0833" y1="0" x2="32.0833" y2="82.5" gradientUnits="userSpaceOnUse">
<stop offset="0.263889" stop-color="#252B31"/>
<stop offset="1" stop-color="#D49C6B"/>
</linearGradient>
</defs>
</svg>
