<svg width="178" height="38" viewBox="0 0 178 38" fill="none" xmlns="http://www.w3.org/2000/svg">
<rect x="1.5" y="1.5" width="175" height="35" fill="#F6FAFB" stroke="#D49C6B" stroke-width="3"/>
<path d="M10.116 25V12.4H16.182C17.358 12.4 18.372 12.592 19.224 12.976C20.088 13.36 20.754 13.912 21.222 14.632C21.69 15.34 21.924 16.18 21.924 17.152C21.924 18.124 21.69 18.964 21.222 19.672C20.754 20.38 20.088 20.932 19.224 21.328C18.372 21.712 17.358 21.904 16.182 21.904H12.474L14.364 20.086V25H10.116ZM14.364 20.554L12.474 18.628H15.912C16.5 18.628 16.932 18.496 17.208 18.232C17.496 17.968 17.64 17.608 17.64 17.152C17.64 16.696 17.496 16.336 17.208 16.072C16.932 15.808 16.5 15.676 15.912 15.676H12.474L14.364 13.75V20.554ZM29.2597 25.18C28.0597 25.18 27.0097 24.958 26.1097 24.514C25.2217 24.07 24.5317 23.464 24.0397 22.696C23.5477 21.916 23.3017 21.04 23.3017 20.068C23.3017 19.072 23.5417 18.19 24.0217 17.422C24.5137 16.654 25.1797 16.054 26.0197 15.622C26.8717 15.19 27.8257 14.974 28.8817 14.974C29.8537 14.974 30.7477 15.166 31.5637 15.55C32.3917 15.934 33.0517 16.504 33.5437 17.26C34.0477 18.016 34.2997 18.952 34.2997 20.068C34.2997 20.212 34.2937 20.374 34.2817 20.554C34.2697 20.722 34.2577 20.878 34.2457 21.022H26.6677V19.06H32.0857L30.5557 19.582C30.5557 19.198 30.4837 18.874 30.3397 18.61C30.2077 18.334 30.0217 18.124 29.7817 17.98C29.5417 17.824 29.2537 17.746 28.9177 17.746C28.5817 17.746 28.2877 17.824 28.0357 17.98C27.7957 18.124 27.6097 18.334 27.4777 18.61C27.3457 18.874 27.2797 19.198 27.2797 19.582V20.194C27.2797 20.614 27.3637 20.974 27.5317 21.274C27.6997 21.574 27.9397 21.802 28.2517 21.958C28.5637 22.102 28.9417 22.174 29.3857 22.174C29.8417 22.174 30.2137 22.114 30.5017 21.994C30.8017 21.874 31.1137 21.694 31.4377 21.454L33.5617 23.596C33.0817 24.112 32.4877 24.508 31.7797 24.784C31.0837 25.048 30.2437 25.18 29.2597 25.18ZM36.6622 25V15.154H40.9642L44.0962 21.292H42.4042L45.9502 15.154H49.7662L49.8022 25H46.1482L46.1302 19.078L46.7602 19.51L44.0422 24.226H42.3322L39.6142 19.204L40.3162 19.024V25H36.6622ZM57.6675 25.18C56.5515 25.18 55.5615 24.964 54.6975 24.532C53.8455 24.088 53.1735 23.482 52.6815 22.714C52.1895 21.946 51.9435 21.064 51.9435 20.068C51.9435 19.072 52.1895 18.19 52.6815 17.422C53.1735 16.654 53.8455 16.054 54.6975 15.622C55.5615 15.19 56.5515 14.974 57.6675 14.974C58.7835 14.974 59.7735 15.19 60.6375 15.622C61.5015 16.054 62.1735 16.654 62.6535 17.422C63.1455 18.19 63.3915 19.072 63.3915 20.068C63.3915 21.064 63.1455 21.946 62.6535 22.714C62.1735 23.482 61.5015 24.088 60.6375 24.532C59.7735 24.964 58.7835 25.18 57.6675 25.18ZM57.6675 22.012C57.9675 22.012 58.2375 21.94 58.4775 21.796C58.7175 21.652 58.9095 21.436 59.0535 21.148C59.1975 20.848 59.2695 20.488 59.2695 20.068C59.2695 19.636 59.1975 19.282 59.0535 19.006C58.9095 18.718 58.7175 18.502 58.4775 18.358C58.2375 18.214 57.9675 18.142 57.6675 18.142C57.3675 18.142 57.0975 18.214 56.8575 18.358C56.6175 18.502 56.4255 18.718 56.2815 19.006C56.1375 19.282 56.0655 19.636 56.0655 20.068C56.0655 20.488 56.1375 20.848 56.2815 21.148C56.4255 21.436 56.6175 21.652 56.8575 21.796C57.0975 21.94 57.3675 22.012 57.6675 22.012ZM65.5501 25V15.154H69.6001V18.61H72.3721V15.154H76.4221V25H72.3721V21.796H69.6001V25H65.5501ZM81.4974 25V17.458L82.3794 18.322H78.4914V15.154H88.5534V18.322H84.6654L85.5474 17.458V25H81.4974ZM90.7855 25V12.4H102.972V25H98.7955V14.794L99.7135 15.694H94.0435L94.9615 14.794V25H90.7855ZM112.508 25.18C111.656 25.18 110.948 25 110.384 24.64C109.832 24.268 109.424 23.71 109.16 22.966C108.896 22.21 108.764 21.25 108.764 20.086C108.764 18.898 108.884 17.932 109.124 17.188C109.376 16.432 109.778 15.874 110.33 15.514C110.882 15.154 111.608 14.974 112.508 14.974C113.372 14.974 114.164 15.184 114.884 15.604C115.604 16.012 116.18 16.6 116.612 17.368C117.044 18.124 117.26 19.03 117.26 20.086C117.26 21.142 117.044 22.054 116.612 22.822C116.18 23.578 115.604 24.16 114.884 24.568C114.164 24.976 113.372 25.18 112.508 25.18ZM105.938 28.492V15.154H109.808V16.486L109.826 20.086L110.006 23.686V28.492H105.938ZM111.536 22.012C111.836 22.012 112.106 21.94 112.346 21.796C112.586 21.652 112.778 21.436 112.922 21.148C113.066 20.86 113.138 20.506 113.138 20.086C113.138 19.654 113.066 19.294 112.922 19.006C112.778 18.718 112.586 18.502 112.346 18.358C112.106 18.214 111.836 18.142 111.536 18.142C111.236 18.142 110.966 18.214 110.726 18.358C110.486 18.502 110.294 18.718 110.15 19.006C110.006 19.294 109.934 19.654 109.934 20.086C109.934 20.506 110.006 20.86 110.15 21.148C110.294 21.436 110.486 21.652 110.726 21.796C110.966 21.94 111.236 22.012 111.536 22.012ZM124.552 25.18C123.436 25.18 122.446 24.964 121.582 24.532C120.73 24.088 120.058 23.482 119.566 22.714C119.074 21.946 118.828 21.064 118.828 20.068C118.828 19.072 119.074 18.19 119.566 17.422C120.058 16.654 120.73 16.054 121.582 15.622C122.446 15.19 123.436 14.974 124.552 14.974C125.668 14.974 126.658 15.19 127.522 15.622C128.386 16.054 129.058 16.654 129.538 17.422C130.03 18.19 130.276 19.072 130.276 20.068C130.276 21.064 130.03 21.946 129.538 22.714C129.058 23.482 128.386 24.088 127.522 24.532C126.658 24.964 125.668 25.18 124.552 25.18ZM124.552 22.012C124.852 22.012 125.122 21.94 125.362 21.796C125.602 21.652 125.794 21.436 125.938 21.148C126.082 20.848 126.154 20.488 126.154 20.068C126.154 19.636 126.082 19.282 125.938 19.006C125.794 18.718 125.602 18.502 125.362 18.358C125.122 18.214 124.852 18.142 124.552 18.142C124.252 18.142 123.982 18.214 123.742 18.358C123.502 18.502 123.31 18.718 123.166 19.006C123.022 19.282 122.95 19.636 122.95 20.068C122.95 20.488 123.022 20.848 123.166 21.148C123.31 21.436 123.502 21.652 123.742 21.796C123.982 21.94 124.252 22.012 124.552 22.012ZM137.601 25.18C136.473 25.18 135.471 24.964 134.595 24.532C133.719 24.1 133.029 23.5 132.525 22.732C132.033 21.952 131.787 21.064 131.787 20.068C131.787 19.072 132.033 18.19 132.525 17.422C133.029 16.654 133.719 16.054 134.595 15.622C135.471 15.19 136.473 14.974 137.601 14.974C138.801 14.974 139.827 15.232 140.679 15.748C141.531 16.264 142.119 16.978 142.443 17.89L139.293 19.438C139.089 18.982 138.837 18.652 138.537 18.448C138.249 18.244 137.931 18.142 137.583 18.142C137.283 18.142 137.001 18.214 136.737 18.358C136.485 18.502 136.281 18.718 136.125 19.006C135.981 19.282 135.909 19.636 135.909 20.068C135.909 20.5 135.981 20.86 136.125 21.148C136.281 21.436 136.485 21.652 136.737 21.796C137.001 21.94 137.283 22.012 137.583 22.012C137.931 22.012 138.249 21.91 138.537 21.706C138.837 21.502 139.089 21.172 139.293 20.716L142.443 22.264C142.119 23.176 141.531 23.89 140.679 24.406C139.827 24.922 138.801 25.18 137.601 25.18ZM146.818 25V17.458L147.7 18.322H143.812V15.154H153.874V18.322H149.986L150.868 17.458V25H146.818ZM160.651 25.18C159.535 25.18 158.545 24.964 157.681 24.532C156.829 24.088 156.157 23.482 155.665 22.714C155.173 21.946 154.927 21.064 154.927 20.068C154.927 19.072 155.173 18.19 155.665 17.422C156.157 16.654 156.829 16.054 157.681 15.622C158.545 15.19 159.535 14.974 160.651 14.974C161.767 14.974 162.757 15.19 163.621 15.622C164.485 16.054 165.157 16.654 165.637 17.422C166.129 18.19 166.375 19.072 166.375 20.068C166.375 21.064 166.129 21.946 165.637 22.714C165.157 23.482 164.485 24.088 163.621 24.532C162.757 24.964 161.767 25.18 160.651 25.18ZM160.651 22.012C160.951 22.012 161.221 21.94 161.461 21.796C161.701 21.652 161.893 21.436 162.037 21.148C162.181 20.848 162.253 20.488 162.253 20.068C162.253 19.636 162.181 19.282 162.037 19.006C161.893 18.718 161.701 18.502 161.461 18.358C161.221 18.214 160.951 18.142 160.651 18.142C160.351 18.142 160.081 18.214 159.841 18.358C159.601 18.502 159.409 18.718 159.265 19.006C159.121 19.282 159.049 19.636 159.049 20.068C159.049 20.488 159.121 20.848 159.265 21.148C159.409 21.436 159.601 21.652 159.841 21.796C160.081 21.94 160.351 22.012 160.651 22.012Z" fill="black"/>
</svg>
